cover
 
http://img254.imageshack.us/img254/3536/istillknowwhatyoudidlas.png

Ever since killing the Fisherman one year ago, Julie James is still
haunted by images of him after her, causes her relationship with Ray
Bronson to suffer further. When her best friend Karla Wilson wins free
tickets to the Bahamas, Julie finds this a perfect opportunity to finally relax.
But someone is waiting for her. Someone who she thought was dead. Someone
who is out again for revenge.

X7KXI0EY.png

SOURCE: EuReKA (7.96GB) THANKS!!!

av32xd6.png

I Still Know What You Did Last Summer 1998 BRRip 720p H264 AAC-Rx(Phoenix-RG).mp4
Format : MPEG-4 / AVC
File size : 1.49 GiB
Duration : 1h 40mn
Bit rate mode : Variable
Bit rate : 1 800 Kbps
Maximum bit rate : 9 114 Kbps
Width : 1 280 pixels
Height : 536 pixels
Display aspect ratio : 2.35
Frame rate mode : Constant
Frame rate : 23.976 fps
Resolution : 24 bits
Colorimetry : 4:2:0
Scan type : Progressive
Bits/(Pixel*Frame) : 0.109
Stream size : 1.26 GiB (85%)




Format : AAC / LC
Duration : 1h 40mn
Bit rate mode : Variable
Bit rate : 323 Kbps
Maximum bit rate : 408 Kbps
Channel(s) : 6 channels
Channel positions : Front: L C R, Rear: L R, LFE
Sampling rate : 48.0 KHz
Resolution : 16 bits
Stream size : 233 MiB (15%)

Compatible: playstationo.png
 
http://www.imdb.com/title/tt0130018
screens 
http://img839.imageshack.us/img839/8264/vlcsnap2010101915h39m01.png 
http://img35.imageshack.us/img35/2738/vlcsnap2010101915h39m24.png 
http://img375.imageshack.us/img375/2277/vlcsnap2010101915h49m20.png